HIERARCHY
ROOT Hips
{
	OFFSET 0.000000 0.000000 0.000000 
	CHANNELS 6 Xposition Yposition Zposition Zrotation Yrotation Xrotation
	JOINT LeftUpLeg
	{
		OFFSET 1.363060 -1.794630 0.839290 
		CHANNELS 3 Zrotation Yrotation Xrotation
		JOINT LeftLeg
		{
			OFFSET 2.448110 -6.726130 0.000000 
			CHANNELS 3 Zrotation Yrotation Xrotation
			JOINT LeftFoot
			{
				OFFSET 2.562200 -7.039590 0.000000 
				CHANNELS 3 Zrotation Yrotation Xrotation
				JOINT LeftToeBase
				{
					OFFSET 0.157640 -0.433110 2.322550 
					CHANNELS 3 Zrotation Yrotation Xrotation
					End Site
					{
						OFFSET 0.000000 0.000000 0.000000 
					}
				}
			}
		}
	}
	JOINT RightUpLeg
	{
		OFFSET -1.305520 -1.794630 0.839290 
		CHANNELS 3 Zrotation Yrotation Xrotation
		JOINT RightLeg
		{
			OFFSET -2.542530 -6.985550 0.000000 
			CHANNELS 3 Zrotation Yrotation Xrotation
			JOINT RightFoot
			{
				OFFSET -2.568260 -7.056230 0.000000 
				CHANNELS 3 Zrotation Yrotation Xrotation
				JOINT RightToeBase
				{
					OFFSET -0.164730 -0.452590 2.363150 
					CHANNELS 3 Zrotation Yrotation Xrotation
					End Site
					{
						OFFSET 0.000000 0.000000 0.000000 
					}
				}
			}
		}
	}
	JOINT Spine
	{
		OFFSET 0.028270 2.035590 -0.193380 
		CHANNELS 3 Zrotation Yrotation Xrotation
		JOINT Spine1
		{
			OFFSET 0.056720 2.048850 -0.042750 
			CHANNELS 3 Zrotation Yrotation Xrotation
			JOINT Neck1
			{
				OFFSET -0.054170 1.746240 0.172020 
				CHANNELS 3 Zrotation Yrotation Xrotation
				JOINT Head
				{
					OFFSET 0.104070 1.761360 -0.123970 
					CHANNELS 3 Zrotation Yrotation Xrotation
					End Site
					{
						OFFSET 0.000000 0.000000 0.000000 
					}
				}
			}
			JOINT LeftArm
			{
				OFFSET 3.362410 1.200890 -0.311210 
				CHANNELS 3 Zrotation Yrotation Xrotation
				JOINT LeftForeArm
				{
					OFFSET 4.983000 -0.000000 -0.000000 
					CHANNELS 3 Zrotation Yrotation Xrotation
					JOINT LeftHand
					{
						OFFSET 3.483560 -0.000000 -0.000000 
						CHANNELS 3 Zrotation Yrotation Xrotation
						JOINT LeftHandIndex1
						{
							OFFSET 0.715260 -0.000000 -0.000000 
							CHANNELS 3 Zrotation Yrotation Xrotation
							End Site
							{
								OFFSET 0.000000 0.000000 0.000000 
							}
						}
					}
				}
			}
			JOINT RightArm
			{
				OFFSET -3.136600 1.374050 -0.404650 
				CHANNELS 3 Zrotation Yrotation Xrotation
				JOINT RightForeArm
				{
					OFFSET -5.241900 -0.000000 -0.000000 
					CHANNELS 3 Zrotation Yrotation Xrotation
					JOINT RightHand
					{
						OFFSET -3.444170 -0.000000 -0.000000 
						CHANNELS 3 Zrotation Yrotation Xrotation
						JOINT RightHandIndex1
						{
							OFFSET -0.622530 -0.000000 -0.000000 
							CHANNELS 3 Zrotation Yrotation Xrotation
							End Site
							{
								OFFSET 0.000000 0.000000 0.000000 
							}
						}
					}
				}
			}
		}
	}
}
MOTION
Frames: 14
Frame Time: 0.041667
-0.003586 18.101580 11.491884 -1.353149 0.664858 0.988232 -18.205455 -6.701585 -13.366750 9.612803 16.787293 58.891840 0.435210 1.311197 16.145275 0.094900 -1.987000 -5.469700 27.013960 9.732072 -9.205879 -0.378987 -5.713436 17.867382 1.293878 -7.487371 6.798115 -0.017300 -0.848200 2.331300 1.427273 -0.295070 -1.635508 3.771484 0.153302 -2.441211 4.298993 -2.743967 12.830010 3.139400 -1.649300 9.665300 -81.867150 0.533310 20.085505 12.830965 -23.723413 -3.543142 -1.315986 -3.236773 8.437001 -7.125000 0.000000 0.000000 81.654147 -4.244710 6.131935 -11.684623 18.107926 -2.563920 0.726336 -0.755457 11.861880 7.125000 0.000000 0.000000 
-0.016907 18.096149 11.646918 -1.348493 0.681232 0.957481 -18.057887 -6.907341 -14.619753 9.791616 16.944662 59.477222 0.346939 1.473821 15.185142 0.120000 -2.233100 -6.150400 27.166126 9.568130 -8.727953 -0.404939 -5.741512 18.019038 1.326224 -7.493657 6.192081 -0.008400 -0.591800 1.626200 1.383861 -0.199557 -1.606345 3.628471 0.208170 -2.369440 4.315124 -2.771117 12.786860 3.141000 -1.656100 9.617000 -81.812121 0.842959 20.209170 12.893043 -23.837602 -3.563618 -1.327079 -3.307239 8.326766 -7.125000 0.000000 0.000000 81.618074 -3.953004 6.735082 -11.838052 18.337677 -2.637138 0.710311 -0.722010 11.953860 7.125000 0.000000 0.000000 
-0.023363 18.089489 11.801440 -1.504730 0.672027 0.908877 -17.786838 -7.141470 -15.750456 9.899713 17.061532 59.844333 0.252837 1.591744 13.927199 0.151300 -2.506500 -6.907700 27.476106 9.331979 -8.323255 -0.450157 -5.820200 18.327501 1.323433 -7.355026 5.527107 -0.008100 -0.582500 1.600800 1.390130 -0.115060 -1.597193 3.519316 0.258772 -2.425681 4.272034 -2.747054 12.590250 3.133400 -1.648700 9.471000 -81.882345 1.096054 20.163306 12.848165 -23.781647 -3.550679 -1.357352 -3.242796 7.962299 -7.125000 0.000000 0.000000 81.471078 -3.769674 7.466541 -12.024783 18.617549 -2.724585 0.709740 -0.659002 11.693607 7.125000 0.000000 0.000000 
-0.032380 18.073401 11.950633 -1.665707 0.651219 0.782479 -17.472795 -7.253193 -16.838130 9.952961 17.149863 60.048350 0.182129 1.613089 12.627290 0.155300 -2.539100 -6.998000 27.810347 9.171969 -7.775132 -0.502740 -5.911004 18.677478 1.334947 -7.268868 4.708503 -0.011500 -0.692200 1.902300 1.388061 0.021228 -1.538614 3.381277 0.327193 -2.314240 4.233831 -2.835977 12.461009 3.118800 -1.692300 9.420900 -81.913827 0.996562 20.145013 12.668201 -23.501948 -3.461367 -1.340119 -3.208285 7.608386 -7.125000 0.000000 0.000000 81.399796 -3.550076 8.260514 -12.324455 19.062719 -2.867083 0.696006 -0.521894 10.968278 7.125000 0.000000 0.000000 
-0.041192 18.055162 12.104028 -1.824825 0.703876 0.613617 -17.163372 -7.401685 -17.808535 9.964205 17.212475 60.112159 0.121376 1.660640 11.471239 0.140500 -2.415900 -6.656500 28.132968 8.790747 -7.223391 -0.559881 -6.009803 19.061389 1.305507 -7.036728 3.960638 -0.016100 -0.819800 2.253100 1.404300 0.086113 -1.469318 3.319253 0.363117 -2.137976 4.201480 -2.833952 12.373635 3.124400 -1.698700 9.341700 -82.023393 1.231954 20.133466 12.677095 -23.527869 -3.456500 -1.301184 -3.290993 7.584286 -7.125000 0.000000 0.000000 81.207662 -3.137070 9.116078 -12.475531 19.279408 -2.938225 0.701127 -0.448962 9.997886 7.125000 0.000000 0.000000 
-0.050824 18.032619 12.256603 -1.880443 0.749397 0.570590 -16.940600 -7.607632 -18.879035 9.928420 17.255737 60.041229 0.100495 1.582873 10.546520 0.132000 -2.341600 -6.450800 28.331071 8.518278 -6.816532 -0.615664 -6.109582 19.427340 1.299788 -6.929392 3.251560 -0.017100 -0.843800 2.319000 1.391149 0.131494 -1.451951 3.263800 0.395313 -2.085025 4.229107 -2.786095 12.530300 3.147000 -1.680200 9.386600 -81.989136 1.727539 20.150807 12.750209 -23.682178 -3.508412 -1.242870 -3.321141 7.374435 -7.125000 0.000000 0.000000 81.064121 -2.673356 9.727452 -12.458911 19.238041 -2.917293 0.783838 -0.599815 9.000108 7.125000 0.000000 0.000000 
-0.062608 18.005465 12.401800 -1.992955 0.502593 0.531676 -16.625487 -7.624634 -20.026475 9.839199 17.273051 59.792363 0.091033 1.533017 9.912203 0.141600 -2.425500 -6.683100 28.630365 8.609794 -6.353488 -0.667352 -6.201414 19.763355 1.310071 -6.905000 2.553959 -0.008400 -0.592400 1.627700 1.360260 0.371506 -1.462581 3.137599 0.523293 -2.203693 4.221916 -2.826505 12.878593 3.106800 -1.696400 9.621700 -81.910997 2.020144 20.082757 12.669369 -23.577939 -3.482973 -1.275650 -3.232653 7.161858 -7.125000 0.000000 0.000000 81.076964 -2.387225 10.161216 -12.558549 19.356064 -2.950892 0.841307 -0.686606 8.381121 7.125000 0.000000 0.000000 
-0.066194 17.987636 12.553350 -2.313519 0.239314 0.485994 -16.121621 -7.631247 -21.115430 9.690475 17.257286 59.341888 0.064341 1.575198 9.196863 0.210700 -2.955300 -8.154400 29.110818 8.623185 -5.891970 -0.716781 -6.285146 20.092773 1.276136 -6.705752 1.793651 -0.004100 -0.414600 1.139200 1.361372 0.625081 -1.529905 2.923636 0.663787 -2.563037 4.228412 -2.815978 12.769708 3.136500 -1.700900 9.503300 -81.902685 2.473928 19.941509 12.456170 -23.297710 -3.467266 -1.320127 -2.789786 6.798830 -7.125000 0.000000 0.000000 80.997556 -2.431584 10.393114 -12.728846 19.611577 -3.033576 0.840590 -0.663043 8.713980 7.125000 0.000000 0.000000 
-0.067117 17.971241 12.707154 -2.375886 0.196686 0.440599 -15.946453 -7.773482 -22.041782 9.473130 17.197020 58.687369 0.032425 1.617782 8.243909 0.251800 -3.229000 -8.916900 29.245592 8.267874 -5.556050 -0.773613 -6.387490 20.474392 1.206190 -6.378072 1.044294 -0.004200 -0.419600 1.152900 1.337026 0.744511 -1.555859 2.761306 0.734752 -2.758466 4.264923 -2.810973 12.446469 3.179300 -1.697500 9.244900 -81.930646 2.964295 20.080667 12.522902 -23.316559 -3.296752 -0.871051 -3.859729 6.805409 -7.125000 0.000000 0.000000 80.896565 -2.325055 10.941044 -12.928777 19.910992 -3.127298 0.874330 -0.699401 8.823157 7.125000 0.000000 0.000000 
-0.067936 17.946853 12.852864 -2.391339 0.115364 0.466314 -15.821395 -7.896655 -22.957215 9.218707 17.112984 57.896297 -0.039636 1.881184 7.313522 0.211000 -2.957400 -8.160100 29.328269 8.048713 -5.225536 -0.823451 -6.476747 20.800754 1.160371 -6.170309 0.369698 -0.007600 -0.562900 1.546800 1.316050 0.855413 -1.502332 2.631193 0.794888 -2.605216 4.190522 -2.838416 12.348429 3.127800 -1.707500 9.185800 -81.997848 3.076797 20.077893 12.591273 -23.415587 -3.299378 -0.826027 -4.000207 6.667842 -7.125000 0.000000 0.000000 80.753867 -1.983546 11.833233 -13.232782 20.366391 -3.285755 0.842121 -0.644104 8.332989 7.125000 0.000000 0.000000 
-0.075416 17.921031 12.992732 -2.449084 -0.203827 0.477733 -15.591057 -7.667780 -23.921711 8.916592 16.994934 56.926711 -0.142846 2.337451 6.670243 0.181500 -2.744300 -7.567700 29.557560 8.307005 -4.738441 -0.881489 -6.580886 21.157695 1.196600 -6.312445 -0.311024 -0.006000 -0.499500 1.372700 1.296235 1.073019 -1.447559 2.566632 0.908926 -2.458626 4.156471 -2.903536 12.283101 3.098900 -1.735800 9.145800 -82.016917 3.130870 19.860224 12.449242 -23.317575 -3.445308 -1.347702 -2.876383 6.377026 -7.125000 0.000000 0.000000 80.578594 -1.410392 12.462028 -13.346338 20.509931 -3.339672 0.838151 -0.582523 8.015363 7.125000 0.000000 0.000000 
-0.078490 17.896439 13.138749 -2.670551 -0.516925 0.449783 -15.207211 -7.547026 -24.748143 8.554244 16.830965 55.750384 -0.250496 2.824506 6.179196 0.112300 -2.160900 -5.950500 29.930300 8.357317 -4.198418 -0.924079 -6.644754 21.415246 1.185640 -6.270188 -1.017470 -0.003200 -0.368100 1.011300 1.291233 1.304950 -1.408617 2.418410 1.028902 -2.367660 4.185392 -2.923860 12.324101 3.121600 -1.745400 9.183300 -82.082840 3.196960 19.862224 12.473062 -23.232945 -3.226125 -0.729102 -4.057049 6.743587 -7.125000 0.000000 0.000000 80.421831 -0.810652 12.858880 -13.355516 20.495297 -3.327351 0.913994 -0.672759 7.879143 7.125000 0.000000 0.000000 
-0.079823 17.876765 13.293681 -2.747851 -0.634109 0.509849 -15.004647 -7.640988 -25.471874 8.120054 16.609219 54.341026 -0.353912 3.293151 5.828811 0.089600 -1.930400 -5.313400 30.073100 8.114064 -3.802291 -0.948474 -6.669861 21.549209 1.165958 -6.197433 -1.521586 -0.000200 -0.081600 0.224300 1.265001 1.512771 -1.393228 2.260510 1.138812 -2.293377 4.180574 -2.948877 12.502668 3.128200 -1.762300 9.363700 -82.128493 3.288386 19.853349 12.423364 -23.192064 -3.274423 -0.980006 -3.697552 6.990715 -7.125000 0.000000 0.000000 80.270995 -0.230820 12.973780 -13.378382 20.507238 -3.335013 0.909613 -0.679630 7.819451 7.125000 0.000000 0.000000 
-0.088635 17.861190 13.454555 -2.984274 -0.652464 0.451832 -14.600381 -7.599845 -26.029003 7.629236 16.331441 52.746497 -0.406529 3.524486 5.382304 0.143800 -2.444200 -6.735000 30.452621 7.933145 -3.135295 -0.960745 -6.656568 21.584569 1.175588 -6.248680 -2.097895 -0.001500 -0.250800 0.689100 1.274164 1.631033 -1.370668 2.173889 1.204367 -2.250653 4.260607 -2.938058 12.471302 3.174100 -1.750400 9.351800 -82.163034 3.503999 19.732120 12.267911 -22.985730 -3.236049 -1.156851 -3.443400 6.873902 -7.125000 0.000000 0.000000 80.118808 0.125328 13.382232 -13.496199 20.676505 -3.411458 0.798871 -0.520413 7.639833 7.125000 0.000000 0.000000 
